# xmcd
#
# Track frame offsets: 
#        150
#        12666
#        31863
#        77397
#        108879
#        147656
#        178985
#        207851
#        238642
#
# Disc length: 3695 seconds
#
# Revision: 0
# Processed by: cddbd v1.5.2PL0 Copyright (c) Steve Scherf et al.
# Submitted via: ExactAudioCopy v1.0b4
#
DISCID=740e6d09
DTITLE=Eddie Clearwater - Live In Michigan 2009, Volume 1
DYEAR=1900
DGENRE=Blues
TTITLE0=Audience Chatter
TTITLE1=Merry Christmas Baby - Band
TTITLE2=Sweet Little Angel - Band
TTITLE3=Introduction - You Better Find A Job
TTITLE4=Blues For Breakfast
TTITLE5=A Good Leavin' Alone
TTITLE6=Too Old To Get Married, Too Young To Be Buried
TTITLE7=Bring It On Down
TTITLE8=Midnight Blues
EXTD=
EXTT0=
EXTT1=
EXTT2=
EXTT3=
EXTT4=
EXTT5=
EXTT6=
EXTT7=
EXTT8=
PLAYORDER=
